<svg xmlns="http://www.w3.org/2000/svg" version="1.0" width="109.000000pt" height="102.000000pt" viewBox="0 0 109.000000 102.000000" preserveAspectRatio="xMidYMid meet">
<metadata fill="#13067a">
Created by potrace 1.16, written by Peter Selinger 2001-2019
</metadata>
<g transform="translate(0.000000,102.000000) scale(0.100000,-0.100000)" fill="#13067a" stroke="none">
<path d="M380 966 c-131 -35 -239 -125 -301 -251 -35 -71 -42 -94 -46 -167 -10 -149 29 -256 130 -364 103 -111 254 -164 402 -143 36 5 82 16 103 24 56 24 142 78 142 90 0 6 -35 28 -78 49 -75 36 -80 37 -122 26 -25 -7 -75 -13 -112 -13 -214 0 -354 228 -257 421 35 70 71 105 148 140 73 33 186 29 252 -10 139 -82 192 -240 128 -379 l-26 -55 139 -142 c77 -78 141 -142 144 -142 2 0 4 54 4 119 l0 119 -30 -11 c-26 -10 -33 -9 -50 9 -19 19 -20 22 -5 57 8 20 19 65 24 100 31 230 -107 449 -328 517 -72 23 -191 26 -261 6z" fill="#13067a"/>
<path d="M449 696 c-58 -20 -96 -53 -119 -102 -64 -132 42 -293 186 -282 113 9 189 90 188 197 -1 66 -20 106 -68 149 -56 49 -121 62 -187 38z" fill="#13067a"/>
</g>
</svg>